<?xml version="1.0" encoding="UTF-8" standalone="no"?>
<!-- Created with Inkscape (http://www.inkscape.org/) -->

<svg
   width="17.95237mm"
   height="9.0599127mm"
   viewBox="0 0 17.95237 9.0599127"
   version="1.1"
   id="svg1"
   xmlns="http://www.w3.org/2000/svg"
   xmlns:svg="http://www.w3.org/2000/svg">
  <defs
     id="defs1" />
  <g
     id="layer1"
     style="display:inline"
     transform="translate(-11.89545,-165.82064)">
    <g
       id="text23"
       style="font-size:4.23333px;font-family:Consolas;-inkscape-font-specification:'Consolas, Normal';letter-spacing:0px;word-spacing:0px;display:inline;stroke-width:0.264583;stroke-linecap:round;stroke-linejoin:round;stroke-miterlimit:1"
       aria-label=" /\mm/\&#10;{='T' =}">
      <path
         d="m 15.886928,165.82064 -1.418001,3.36517 h -0.343131 l 1.418,-3.36517 z m 2.420522,3.36517 h -0.343131 l -1.418001,-3.36517 h 0.343132 z m 2.046385,-0.44442 v -1.49034 q 0,-0.0971 -0.0083,-0.15917 -0.0062,-0.062 -0.02274,-0.0971 -0.01447,-0.0372 -0.03927,-0.0517 -0.02274,-0.0145 -0.05788,-0.0145 -0.04134,0 -0.07648,0.0248 -0.03514,0.0248 -0.07648,0.0806 -0.03927,0.0558 -0.08888,0.14882 -0.04754,0.0909 -0.113688,0.22531 v 1.33325 h -0.328662 v -1.45107 q 0,-0.11369 -0.0083,-0.18397 -0.0062,-0.0703 -0.02274,-0.10955 -0.01447,-0.0393 -0.03927,-0.0537 -0.02481,-0.0145 -0.05995,-0.0145 -0.03721,0 -0.07028,0.0207 -0.03307,0.0207 -0.07441,0.0744 -0.03927,0.0537 -0.08888,0.14676 -0.04961,0.093 -0.117822,0.23771 v 1.33325 h -0.330729 v -2.07532 h 0.274919 l 0.01654,0.39481 q 0.05374,-0.11782 0.103353,-0.20051 0.05168,-0.0827 0.10542,-0.13229 0.05374,-0.0517 0.113688,-0.0744 0.06201,-0.0248 0.136425,-0.0248 0.167432,0 0.254248,0.10956 0.08682,0.10955 0.08682,0.33899 0.04961,-0.10748 0.09715,-0.19016 0.04754,-0.0847 0.101286,-0.14056 0.05581,-0.0579 0.121956,-0.0868 0.06615,-0.031 0.152962,-0.031 0.390674,0 0.390674,0.60152 v 1.51101 z m 2.327504,0 v -1.49034 q 0,-0.0971 -0.0083,-0.15917 -0.0062,-0.062 -0.02274,-0.0971 -0.01447,-0.0372 -0.03927,-0.0517 -0.02274,-0.0145 -0.05788,-0.0145 -0.04134,0 -0.07648,0.0248 -0.03514,0.0248 -0.07648,0.0806 -0.03927,0.0558 -0.08888,0.14882 -0.04754,0.0909 -0.113689,0.22531 v 1.33325 h -0.328661 v -1.45107 q 0,-0.11369 -0.0083,-0.18397 -0.0062,-0.0703 -0.02274,-0.10955 -0.01447,-0.0393 -0.03927,-0.0537 -0.02481,-0.0145 -0.05994,-0.0145 -0.03721,0 -0.07028,0.0207 -0.03307,0.0207 -0.07441,0.0744 -0.03927,0.0537 -0.08888,0.14676 -0.04961,0.093 -0.117822,0.23771 v 1.33325 h -0.330729 v -2.07532 h 0.274918 l 0.01654,0.39481 q 0.05374,-0.11782 0.103352,-0.20051 0.05168,-0.0827 0.10542,-0.13229 0.05374,-0.0517 0.113688,-0.0744 0.06201,-0.0248 0.136426,-0.0248 0.167431,0 0.254248,0.10956 0.08682,0.10955 0.08682,0.33899 0.04961,-0.10748 0.09715,-0.19016 0.04754,-0.0847 0.101285,-0.14056 0.05581,-0.0579 0.121957,-0.0868 0.06615,-0.031 0.152962,-0.031 0.390673,0 0.390673,0.60152 v 1.51101 z m 2.515608,-2.92075 -1.418,3.36517 h -0.343132 l 1.418,-3.36517 z m 2.420521,3.36517 h -0.343131 l -1.418,-3.36517 h 0.343131 z"
         id="path43" />
      <path
         d="m 13.414729,174.88055 h -0.152962 q -0.398942,0 -0.593245,-0.1881 -0.194303,-0.18604 -0.194303,-0.56638 v -0.71106 q 0,-0.10129 -0.02274,-0.17984 -0.02274,-0.0806 -0.08061,-0.13436 -0.05581,-0.0558 -0.150895,-0.0847 -0.09302,-0.0289 -0.235644,-0.0289 h -0.08888 v -0.28732 h 0.08888 q 0.150895,0 0.245979,-0.0248 0.09508,-0.0248 0.148828,-0.0744 0.05374,-0.0517 0.07441,-0.13023 0.02067,-0.0786 0.02067,-0.18603 v -0.48989 q 0,-0.17364 0.04134,-0.31213 0.04134,-0.14056 0.134359,-0.23771 0.09508,-0.0992 0.243912,-0.1509 0.150895,-0.0537 0.367936,-0.0537 h 0.152962 v 0.28939 H 13.29277 q -0.479557,0 -0.479557,0.46509 v 0.48162 q 0,0.50436 -0.436149,0.56844 0.440283,0.0434 0.440283,0.56637 v 0.70694 q 0,0.47335 0.475423,0.47335 h 0.121956 z m 2.525942,-2.18281 h -1.777668 v -0.30386 h 1.777668 z m 0,0.71933 h -1.777668 v -0.30385 h 1.777668 z m 1.676382,-2.30476 -0.05994,0.96945 h -0.355534 l -0.05788,-0.96945 z m 3.075779,0.5333 h -0.799951 v 2.38745 h -0.37207 v -2.38745 h -0.79995 v -0.3142 h 1.971971 z m 1.57923,-0.5333 -0.05994,0.96945 h -0.355534 l -0.05788,-0.96945 z m 5.306132,1.58543 h -1.777668 v -0.30386 h 1.777668 z m 0,0.71933 h -1.777668 v -0.30385 h 1.777668 z m 0.748274,-2.37711 h 0.152962 q 0.398942,0 0.593245,0.1881 0.194303,0.18604 0.194303,0.56638 v 0.47748 q 0,0.10129 0.02274,0.18191 0.02274,0.0785 0.07855,0.13435 0.05788,0.0538 0.152962,0.0827 0.09509,0.0289 0.237711,0.0289 h 0.08888 v 0.28732 h -0.08888 q -0.150895,0 -0.248046,0.0248 -0.09509,0.0248 -0.148828,0.0765 -0.05374,0.0496 -0.07441,0.12816 -0.02067,0.0786 -0.02067,0.18603 v 0.72347 q 0,0.17364 -0.04134,0.31213 -0.04134,0.14056 -0.134359,0.23771 -0.09302,0.0992 -0.243912,0.1509 -0.150895,0.0537 -0.367936,0.0537 h -0.152962 v -0.28939 h 0.124023 q 0.47749,0 0.47749,-0.46509 v -0.7152 q 0,-0.50436 0.436149,-0.56637 -0.440283,-0.0475 -0.440283,-0.56844 v -0.47336 q 0,-0.47335 -0.473356,-0.47335 h -0.124023 z"
         id="path44" />
    </g>
  </g>
</svg>
