<?xml version="1.0" encoding="UTF-8" standalone="no"?>
<!-- Created with Inkscape (http://www.inkscape.org/) -->

<svg
   width="17.952377mm"
   height="9.0722666mm"
   viewBox="0 0 17.952377 9.0722666"
   version="1.1"
   id="svg1"
   xmlns="http://www.w3.org/2000/svg"
   xmlns:svg="http://www.w3.org/2000/svg">
  <defs
     id="defs1" />
  <g
     id="layer1"
     style="display:inline"
     transform="translate(-4.7867638,-113.11589)">
    <g
       id="text15"
       style="font-size:4.23333px;font-family:Consolas;-inkscape-font-specification:'Consolas, Normal';letter-spacing:0px;word-spacing:0px;display:inline;stroke-width:0.264583;stroke-linecap:round;stroke-linejoin:round;stroke-miterlimit:1"
       aria-label=" /\mm/\&#10;{=@_@ =}">
      <path
         d="m 8.7782478,113.11589 -1.4180001,3.36516 H 7.0171165 l 1.4180001,-3.36516 z m 2.4205222,3.36516 h -0.343131 l -1.4180004,-3.36516 h 0.3431313 z m 2.046385,-0.44441 v -1.49035 q 0,-0.0971 -0.0083,-0.15916 -0.0062,-0.062 -0.02274,-0.0972 -0.01447,-0.0372 -0.03927,-0.0517 -0.02274,-0.0145 -0.05788,-0.0145 -0.04134,0 -0.07648,0.0248 -0.03514,0.0248 -0.07648,0.0806 -0.03927,0.0558 -0.08888,0.14883 -0.04754,0.0909 -0.113688,0.22531 v 1.33325 h -0.328662 v -1.45108 q 0,-0.11368 -0.0083,-0.18396 -0.0062,-0.0703 -0.02274,-0.10956 -0.01447,-0.0393 -0.03927,-0.0537 -0.0248,-0.0145 -0.05994,-0.0145 -0.03721,0 -0.07028,0.0207 -0.03307,0.0207 -0.07441,0.0744 -0.03927,0.0537 -0.08888,0.14676 -0.04961,0.093 -0.117822,0.23772 v 1.33325 h -0.330729 v -2.07533 h 0.274919 l 0.01654,0.39481 q 0.05374,-0.11782 0.103353,-0.2005 0.05168,-0.0827 0.10542,-0.1323 0.05374,-0.0517 0.113688,-0.0744 0.06201,-0.0248 0.136426,-0.0248 0.167431,0 0.254247,0.10955 0.08682,0.10955 0.08682,0.339 0.04961,-0.10749 0.09715,-0.19017 0.04754,-0.0847 0.101286,-0.14056 0.05581,-0.0579 0.121956,-0.0868 0.06615,-0.031 0.152962,-0.031 0.390674,0 0.390674,0.60151 v 1.51102 z m 2.327505,0 v -1.49035 q 0,-0.0971 -0.0083,-0.15916 -0.0062,-0.062 -0.02274,-0.0972 -0.01447,-0.0372 -0.03927,-0.0517 -0.02274,-0.0145 -0.05788,-0.0145 -0.04134,0 -0.07648,0.0248 -0.03514,0.0248 -0.07648,0.0806 -0.03927,0.0558 -0.08888,0.14883 -0.04754,0.0909 -0.113688,0.22531 v 1.33325 H 14.76028 v -1.45108 q 0,-0.11368 -0.0083,-0.18396 -0.0062,-0.0703 -0.02274,-0.10956 -0.01447,-0.0393 -0.03927,-0.0537 -0.02481,-0.0145 -0.05995,-0.0145 -0.03721,0 -0.07028,0.0207 -0.03307,0.0207 -0.07441,0.0744 -0.03927,0.0537 -0.08888,0.14676 -0.04961,0.093 -0.117822,0.23772 v 1.33325 h -0.330729 v -2.07533 h 0.274918 l 0.01654,0.39481 q 0.05374,-0.11782 0.103353,-0.2005 0.05168,-0.0827 0.105419,-0.1323 0.05374,-0.0517 0.113689,-0.0744 0.06201,-0.0248 0.136425,-0.0248 0.167432,0 0.254248,0.10955 0.08682,0.10955 0.08682,0.339 0.04961,-0.10749 0.09715,-0.19017 0.04754,-0.0847 0.101286,-0.14056 0.05581,-0.0579 0.121956,-0.0868 0.06615,-0.031 0.152962,-0.031 0.390674,0 0.390674,0.60151 v 1.51102 z m 2.515607,-2.92075 -1.418,3.36516 h -0.343131 l 1.418,-3.36516 z m 2.420522,3.36516 h -0.343132 l -1.418,-3.36516 h 0.343131 z"
         id="path35" />
      <path
         d="M 6.3060493,122.17579 H 6.1530872 q -0.3989417,0 -0.5932449,-0.1881 -0.1943033,-0.18604 -0.1943033,-0.56637 v -0.71107 q 0,-0.10129 -0.022738,-0.17983 -0.022738,-0.0806 -0.080615,-0.13436 -0.05581,-0.0558 -0.1508951,-0.0847 -0.093018,-0.0289 -0.2356443,-0.0289 h -0.088883 v -0.28732 h 0.088883 q 0.150895,0 0.2459796,-0.0248 0.095085,-0.0248 0.148828,-0.0744 0.053743,-0.0517 0.074414,-0.13023 0.020671,-0.0785 0.020671,-0.18603 v -0.48989 q 0,-0.17364 0.041341,-0.31213 0.041341,-0.14056 0.1343587,-0.23771 0.095084,-0.0992 0.2439125,-0.15089 0.1508951,-0.0537 0.3679359,-0.0537 h 0.1529621 v 0.28939 H 6.184093 q -0.4795569,0 -0.4795569,0.46509 v 0.48162 q 0,0.50436 -0.4361487,0.56844 0.4402829,0.0434 0.4402829,0.56637 v 0.70694 q 0,0.47335 0.4754227,0.47335 h 0.1219563 z m 2.525942,-2.18281 H 7.0543235 v -0.30386 h 1.7776678 z m 0,0.71934 H 7.0543235 v -0.30386 h 1.7776678 z m 1.8872217,-0.22738 q -0.0186,0.13229 -0.02067,0.21911 -0.0021,0.0868 0.01033,0.13642 0.01447,0.0496 0.04341,0.0703 0.02894,0.0186 0.07235,0.0186 0.05788,0 0.109554,-0.06 0.05168,-0.062 0.09095,-0.1881 0.04134,-0.12816 0.06408,-0.32246 0.0248,-0.1943 0.0248,-0.46095 0,-0.29766 -0.03721,-0.53124 -0.03721,-0.23357 -0.117822,-0.39687 -0.08062,-0.1633 -0.21084,-0.24805 -0.128158,-0.0868 -0.312126,-0.0868 -0.140559,0 -0.272851,0.0723 -0.130224,0.0703 -0.2439124,0.20051 -0.111621,0.12815 -0.2046385,0.31005 -0.09095,0.17984 -0.1570962,0.39895 -0.064079,0.2191 -0.1012858,0.47129 -0.03514,0.25218 -0.03514,0.52503 0,0.66559 0.2005044,0.99218 0.2005044,0.32867 0.5643065,0.32867 0.183968,0 0.343131,-0.0434 0.159163,-0.0413 0.330729,-0.12609 v 0.26665 q -0.169499,0.0786 -0.338997,0.11782 -0.169499,0.0393 -0.355534,0.0393 -0.5270991,0 -0.7813469,-0.3948 -0.2521808,-0.39481 -0.2563149,-1.17616 -0.00207,-0.31212 0.041341,-0.59738 0.043408,-0.28732 0.1240234,-0.53536 0.082682,-0.24805 0.1984373,-0.45062 0.1178222,-0.20464 0.2645831,-0.34727 0.148828,-0.14469 0.322461,-0.22324 0.173633,-0.0806 0.370003,-0.0806 0.245979,0 0.425813,0.10129 0.181901,0.0992 0.299723,0.28939 0.117822,0.1881 0.173633,0.46302 0.05788,0.27492 0.05788,0.62632 -0.0021,0.35553 -0.04754,0.60978 -0.04341,0.25218 -0.124023,0.41341 -0.08061,0.16123 -0.19637,0.23771 -0.113688,0.0744 -0.254248,0.0744 -0.161231,0 -0.239779,-0.0827 -0.07855,-0.0827 -0.07855,-0.22324 -0.07855,0.15916 -0.169498,0.23358 -0.09095,0.0723 -0.219108,0.0723 -0.1943036,0 -0.2914552,-0.14469 -0.097152,-0.14676 -0.097152,-0.46095 0,-0.11369 0.012402,-0.24392 0.014469,-0.13022 0.045475,-0.26044 0.033073,-0.1323 0.084749,-0.25219 0.051676,-0.12195 0.1260904,-0.2129 0.076481,-0.093 0.1798338,-0.14883 0.103353,-0.0558 0.235645,-0.0558 0.07855,0 0.146761,0.0186 0.06821,0.0186 0.09922,0.0372 l 0.266651,-0.0641 z m -0.21084,-0.73587 q -0.0186,-0.0248 -0.05788,-0.0434 -0.03721,-0.0207 -0.09508,-0.0207 -0.06201,0 -0.111621,0.0434 -0.04961,0.0434 -0.08888,0.11575 -0.03721,0.0724 -0.06408,0.16537 -0.0248,0.091 -0.04341,0.1881 -0.01654,0.0971 -0.02481,0.19224 -0.0062,0.093 -0.0062,0.16743 0,0.19843 0.02481,0.28525 0.02481,0.0868 0.09508,0.0868 0.02481,0 0.04961,-0.0103 0.0248,-0.0103 0.05168,-0.0393 0.02894,-0.031 0.06201,-0.0847 0.03307,-0.0538 0.07235,-0.14056 z m 3.253546,2.42672 h -2.327505 v -0.29765 h 2.327505 z m 1.612303,-1.69085 q -0.0186,0.13229 -0.02067,0.21911 -0.0021,0.0868 0.01033,0.13642 0.01447,0.0496 0.04341,0.0703 0.02894,0.0186 0.07235,0.0186 0.05788,0 0.109554,-0.06 0.05168,-0.062 0.09095,-0.1881 0.04134,-0.12816 0.06408,-0.32246 0.02481,-0.1943 0.02481,-0.46095 0,-0.29766 -0.03721,-0.53124 -0.03721,-0.23357 -0.117822,-0.39687 -0.08061,-0.1633 -0.21084,-0.24805 -0.128157,-0.0868 -0.312125,-0.0868 -0.14056,0 -0.272852,0.0723 -0.130224,0.0703 -0.243912,0.20051 -0.111621,0.12815 -0.204639,0.31005 -0.09095,0.17984 -0.157096,0.39895 -0.06408,0.2191 -0.101286,0.47129 -0.03514,0.25218 -0.03514,0.52503 0,0.66559 0.200505,0.99218 0.200504,0.32867 0.564306,0.32867 0.183968,0 0.343131,-0.0434 0.159164,-0.0413 0.330729,-0.12609 v 0.26665 q -0.169498,0.0786 -0.338997,0.11782 -0.169499,0.0393 -0.355534,0.0393 -0.527099,0 -0.781347,-0.3948 -0.25218,-0.39481 -0.256314,-1.17616 -0.0021,-0.31212 0.04134,-0.59738 0.04341,-0.28732 0.124023,-0.53536 0.08268,-0.24805 0.198437,-0.45062 0.117823,-0.20464 0.264583,-0.34727 0.148828,-0.14469 0.322461,-0.22324 0.173633,-0.0806 0.370003,-0.0806 0.24598,0 0.425814,0.10129 0.1819,0.0992 0.299723,0.28939 0.117822,0.1881 0.173632,0.46302 0.05788,0.27492 0.05788,0.62632 -0.0021,0.35553 -0.04754,0.60978 -0.04341,0.25218 -0.124024,0.41341 -0.08061,0.16123 -0.19637,0.23771 -0.113688,0.0744 -0.254248,0.0744 -0.16123,0 -0.239778,-0.0827 -0.07855,-0.0827 -0.07855,-0.22324 -0.07855,0.15916 -0.169499,0.23358 -0.09095,0.0723 -0.219108,0.0723 -0.194303,0 -0.291455,-0.14469 -0.09715,-0.14676 -0.09715,-0.46095 0,-0.11369 0.0124,-0.24392 0.01447,-0.13022 0.04547,-0.26044 0.03307,-0.1323 0.08475,-0.25219 0.05168,-0.12195 0.126091,-0.2129 0.07648,-0.093 0.179834,-0.14883 0.103352,-0.0558 0.235644,-0.0558 0.07855,0 0.146761,0.0186 0.06821,0.0186 0.09922,0.0372 l 0.26665,-0.0641 z m -0.210839,-0.73587 q -0.0186,-0.0248 -0.05788,-0.0434 -0.03721,-0.0207 -0.09508,-0.0207 -0.06201,0 -0.111621,0.0434 -0.04961,0.0434 -0.08888,0.11575 -0.03721,0.0724 -0.06408,0.16537 -0.0248,0.091 -0.04341,0.1881 -0.01654,0.0971 -0.0248,0.19224 -0.0062,0.093 -0.0062,0.16743 0,0.19843 0.0248,0.28525 0.02481,0.0868 0.09509,0.0868 0.0248,0 0.04961,-0.0103 0.0248,-0.0103 0.05168,-0.0393 0.02894,-0.031 0.06201,-0.0847 0.03307,-0.0538 0.07235,-0.14056 z m 5.306131,0.24391 h -1.777667 v -0.30386 h 1.777667 z m 0,0.71934 h -1.777667 v -0.30386 h 1.777667 z m 0.748274,-2.37712 h 0.152962 q 0.398942,0 0.593245,0.1881 0.194303,0.18604 0.194303,0.56638 v 0.47749 q 0,0.10128 0.02274,0.1819 0.02274,0.0785 0.07855,0.13436 0.05788,0.0537 0.152962,0.0827 0.09509,0.0289 0.237712,0.0289 h 0.08888 v 0.28732 h -0.08888 q -0.150895,0 -0.248047,0.0248 -0.09509,0.0248 -0.148828,0.0765 -0.05374,0.0496 -0.07441,0.12816 -0.02067,0.0786 -0.02067,0.18604 v 0.72347 q 0,0.17363 -0.04134,0.31212 -0.04134,0.14056 -0.134358,0.23771 -0.09302,0.0992 -0.243913,0.1509 -0.150895,0.0537 -0.367936,0.0537 h -0.152962 v -0.28939 h 0.124024 q 0.477489,0 0.477489,-0.46508 v -0.71521 q 0,-0.50436 0.436149,-0.56637 -0.440283,-0.0475 -0.440283,-0.56844 v -0.47335 q 0,-0.47336 -0.473355,-0.47336 h -0.124024 z"
         id="path36" />
    </g>
  </g>
</svg>
