<?xml version="1.0" encoding="UTF-8" standalone="no"?>
<!-- Created with Inkscape (http://www.inkscape.org/) -->

<svg
   width="17.952377mm"
   height="9.0599003mm"
   viewBox="0 0 17.952377 9.0599003"
   version="1.1"
   id="svg1"
   xmlns="http://www.w3.org/2000/svg"
   xmlns:svg="http://www.w3.org/2000/svg">
  <defs
     id="defs1" />
  <g
     id="layer1"
     style="display:inline"
     transform="translate(-4.1405202,-63.139708)">
    <g
       id="text8"
       style="font-size:4.23333px;font-family:Consolas;-inkscape-font-specification:'Consolas, Normal';letter-spacing:0px;word-spacing:0px;display:inline;stroke-width:0.264583;stroke-linecap:round;stroke-linejoin:round;stroke-miterlimit:1"
       aria-label=" /\mm/\&#10;{='-' =}">
      <path
         d="M 8.1320043,63.139706 6.7140042,66.504872 H 6.3708729 L 7.788873,63.139706 Z m 2.4205217,3.365166 H 10.209395 L 8.7913951,63.139706 h 0.3431312 z m 2.046385,-0.444417 v -1.490347 q 0,-0.09715 -0.0083,-0.159163 -0.0062,-0.06201 -0.02274,-0.09715 -0.01447,-0.03721 -0.03927,-0.05168 -0.02274,-0.01447 -0.05788,-0.01447 -0.04134,0 -0.07648,0.0248 -0.03514,0.02481 -0.07648,0.08061 -0.03927,0.05581 -0.08888,0.148828 -0.04754,0.09095 -0.113689,0.225309 v 1.333251 H 11.786531 V 64.60937 q 0,-0.113688 -0.0083,-0.183968 -0.0062,-0.07028 -0.02274,-0.109554 -0.01447,-0.03927 -0.03927,-0.05374 -0.02481,-0.01447 -0.05995,-0.01447 -0.03721,0 -0.07028,0.02067 -0.03307,0.02067 -0.07441,0.07441 -0.03927,0.05374 -0.08888,0.146761 -0.04961,0.09302 -0.117822,0.237711 v 1.333251 H 10.97415 v -2.075323 h 0.274918 l 0.01654,0.394807 q 0.05374,-0.117822 0.103352,-0.200504 0.05168,-0.08268 0.10542,-0.132292 0.05374,-0.05168 0.113688,-0.07441 0.06201,-0.0248 0.136426,-0.0248 0.167431,0 0.254248,0.109553 0.08682,0.109554 0.08682,0.338998 0.04961,-0.107487 0.09715,-0.19017 0.04754,-0.08475 0.101285,-0.140559 0.05581,-0.05788 0.121957,-0.08682 0.06615,-0.03101 0.152962,-0.03101 0.390673,0 0.390673,0.601513 v 1.511017 z m 2.327505,0 v -1.490347 q 0,-0.09715 -0.0083,-0.159163 -0.0062,-0.06201 -0.02274,-0.09715 -0.01447,-0.03721 -0.03927,-0.05168 -0.02274,-0.01447 -0.05788,-0.01447 -0.04134,0 -0.07648,0.0248 -0.03514,0.02481 -0.07648,0.08061 -0.03927,0.05581 -0.08888,0.148828 -0.04754,0.09095 -0.113688,0.225309 v 1.333251 H 14.114036 V 64.60937 q 0,-0.113688 -0.0083,-0.183968 -0.0062,-0.07028 -0.02274,-0.109554 -0.01447,-0.03927 -0.03927,-0.05374 -0.0248,-0.01447 -0.05994,-0.01447 -0.03721,0 -0.07028,0.02067 -0.03307,0.02067 -0.07441,0.07441 -0.03927,0.05374 -0.08888,0.146761 -0.04961,0.09302 -0.117823,0.237711 v 1.333251 H 13.30171 v -2.075323 h 0.274919 l 0.01654,0.394807 q 0.05374,-0.117822 0.103353,-0.200504 0.05168,-0.08268 0.10542,-0.132292 0.05374,-0.05168 0.113688,-0.07441 0.06201,-0.0248 0.136426,-0.0248 0.167431,0 0.254247,0.109553 0.08682,0.109554 0.08682,0.338998 0.04961,-0.107487 0.09715,-0.19017 0.04754,-0.08475 0.101286,-0.140559 0.05581,-0.05788 0.121956,-0.08682 0.06615,-0.03101 0.152963,-0.03101 0.390673,0 0.390673,0.601513 v 1.511017 z m 2.515607,-2.920749 -1.418,3.365166 h -0.343131 l 1.418,-3.365166 z m 2.420522,3.365166 h -0.343131 l -1.418,-3.365166 h 0.343131 z"
         id="path29" />
      <path
         d="M 5.6598057,72.19961 H 5.5068436 q -0.3989417,0 -0.5932449,-0.188102 -0.1943032,-0.186035 -0.1943032,-0.566373 v -0.711067 q 0,-0.101286 -0.022738,-0.179834 -0.022738,-0.08061 -0.080615,-0.134359 -0.05581,-0.05581 -0.1508951,-0.08475 -0.093018,-0.02894 -0.2356443,-0.02894 h -0.088883 v -0.28732 h 0.088883 q 0.1508951,0 0.2459796,-0.02481 0.095085,-0.02481 0.148828,-0.07441 0.053744,-0.05168 0.074414,-0.130224 0.020671,-0.07855 0.020671,-0.186035 v -0.489893 q 0,-0.173632 0.041341,-0.312125 0.041341,-0.14056 0.1343586,-0.237711 0.095084,-0.09922 0.2439125,-0.150895 0.1508951,-0.05374 0.3679359,-0.05374 H 5.6598058 V 68.64841 H 5.5378495 q -0.4795569,0 -0.4795569,0.465087 v 0.481624 q 0,0.504362 -0.4361487,0.568441 0.4402828,0.04341 0.4402828,0.566373 v 0.706933 q 0,0.473356 0.4754228,0.473356 H 5.6598057 Z M 8.1857477,70.0168 H 6.4080799 v -0.303858 h 1.7776678 z m 0,0.719335 H 6.4080799 v -0.303857 h 1.7776678 z m 1.6763821,-2.304767 -0.059945,0.969449 H 9.4466517 l -0.057878,-0.969449 z m 2.7078432,1.963703 h -1.2361 v -0.338997 h 1.2361 z m 1.947166,-1.963703 -0.05994,0.969449 h -0.355534 l -0.05788,-0.969449 z m 5.306132,1.585432 h -1.777668 v -0.303858 h 1.777668 z m 0,0.719335 h -1.777668 v -0.303857 h 1.777668 z m 0.748274,-2.377114 h 0.152962 q 0.398941,0 0.593245,0.188102 0.194303,0.186035 0.194303,0.566373 v 0.47749 q 0,0.101286 0.02274,0.181901 0.02274,0.07855 0.07855,0.134359 0.05788,0.05374 0.152962,0.08268 0.09508,0.02894 0.237711,0.02894 h 0.08888 v 0.28732 h -0.08888 q -0.150895,0 -0.248047,0.02481 -0.09508,0.02481 -0.148828,0.07648 -0.05374,0.04961 -0.07441,0.128158 -0.02067,0.07855 -0.02067,0.186035 v 0.723469 q 0,0.173633 -0.04134,0.312125 -0.04134,0.14056 -0.134359,0.237712 -0.09302,0.09922 -0.243912,0.150895 -0.150895,0.05374 -0.367936,0.05374 h -0.152962 v -0.289387 h 0.124023 q 0.47749,0 0.47749,-0.465088 v -0.715201 q 0,-0.504362 0.436148,-0.566373 -0.440282,-0.04754 -0.440282,-0.568441 v -0.473355 q 0,-0.473356 -0.473356,-0.473356 h -0.124023 z"
         id="path30" />
    </g>
  </g>
</svg>
