<?xml version="1.0" encoding="UTF-8" standalone="no"?>
<!-- Created with Inkscape (http://www.inkscape.org/) -->

<svg
   width="17.952379mm"
   height="9.0599604mm"
   viewBox="0 0 17.952379 9.0599604"
   version="1.1"
   id="svg1"
   xmlns="http://www.w3.org/2000/svg"
   xmlns:svg="http://www.w3.org/2000/svg">
  <defs
     id="defs1" />
  <g
     id="layer1"
     style="display:inline"
     transform="translate(-6.725495,-126.68699)">
    <g
       id="text17"
       style="font-size:4.23333px;font-family:Consolas;-inkscape-font-specification:'Consolas, Normal';letter-spacing:0px;word-spacing:0px;display:inline;stroke-width:0.264583;stroke-linecap:round;stroke-linejoin:round;stroke-miterlimit:1"
       aria-label=" /\mm/\&#10;{=+_- =}">
      <path
         d="m 10.716979,126.68699 -1.4180001,3.36517 H 8.9558477 l 1.4180003,-3.36517 z m 2.420522,3.36517 H 12.79437 l -1.418,-3.36517 h 0.343131 z m 2.046385,-0.44442 v -1.49034 q 0,-0.0972 -0.0083,-0.15917 -0.0062,-0.062 -0.02274,-0.0971 -0.01447,-0.0372 -0.03927,-0.0517 -0.02274,-0.0145 -0.05788,-0.0145 -0.04134,0 -0.07648,0.0248 -0.03514,0.0248 -0.07648,0.0806 -0.03927,0.0558 -0.08888,0.14883 -0.04754,0.0909 -0.113688,0.22531 v 1.33325 h -0.328662 v -1.45107 q 0,-0.11369 -0.0083,-0.18397 -0.0062,-0.0703 -0.02274,-0.10955 -0.01447,-0.0393 -0.03927,-0.0538 -0.02481,-0.0145 -0.05995,-0.0145 -0.03721,0 -0.07028,0.0207 -0.03307,0.0207 -0.07441,0.0744 -0.03927,0.0537 -0.08888,0.14676 -0.04961,0.093 -0.117823,0.23771 v 1.33325 h -0.330728 v -2.07532 h 0.274918 l 0.01654,0.39481 q 0.05374,-0.11783 0.103353,-0.20051 0.05168,-0.0827 0.10542,-0.13229 0.05374,-0.0517 0.113688,-0.0744 0.06201,-0.0248 0.136426,-0.0248 0.167431,0 0.254248,0.10956 0.08682,0.10955 0.08682,0.33899 0.04961,-0.10748 0.09715,-0.19017 0.04754,-0.0847 0.101285,-0.14056 0.05581,-0.0579 0.121957,-0.0868 0.06614,-0.031 0.152962,-0.031 0.390673,0 0.390673,0.60151 v 1.51102 z m 2.327505,0 v -1.49034 q 0,-0.0972 -0.0083,-0.15917 -0.0062,-0.062 -0.02274,-0.0971 -0.01447,-0.0372 -0.03927,-0.0517 -0.02274,-0.0145 -0.05788,-0.0145 -0.04134,0 -0.07648,0.0248 -0.03514,0.0248 -0.07648,0.0806 -0.03927,0.0558 -0.08888,0.14883 -0.04754,0.0909 -0.113688,0.22531 v 1.33325 h -0.328662 v -1.45107 q 0,-0.11369 -0.0083,-0.18397 -0.0062,-0.0703 -0.02274,-0.10955 -0.01447,-0.0393 -0.03927,-0.0538 -0.02481,-0.0145 -0.05994,-0.0145 -0.03721,0 -0.07028,0.0207 -0.03307,0.0207 -0.07441,0.0744 -0.03927,0.0537 -0.08888,0.14676 -0.04961,0.093 -0.117822,0.23771 v 1.33325 H 15.88664 v -2.07532 h 0.274919 l 0.01654,0.39481 q 0.05374,-0.11783 0.103353,-0.20051 0.05168,-0.0827 0.10542,-0.13229 0.05374,-0.0517 0.113688,-0.0744 0.06201,-0.0248 0.136425,-0.0248 0.167432,0 0.254248,0.10956 0.08682,0.10955 0.08682,0.33899 0.04961,-0.10748 0.09715,-0.19017 0.04754,-0.0847 0.101286,-0.14056 0.05581,-0.0579 0.121956,-0.0868 0.06615,-0.031 0.152962,-0.031 0.390674,0 0.390674,0.60151 v 1.51102 z m 2.515607,-2.92075 -1.418,3.36517 h -0.343131 l 1.418,-3.36517 z m 2.420522,3.36517 h -0.343132 l -1.418,-3.36517 h 0.343132 z"
         id="path37" />
      <path
         d="M 8.2447805,135.7469 H 8.0918184 q -0.3989417,0 -0.5932449,-0.1881 -0.1943033,-0.18604 -0.1943033,-0.56638 v -0.71107 q 0,-0.10128 -0.022738,-0.17983 -0.022738,-0.0806 -0.080615,-0.13436 -0.05581,-0.0558 -0.1508951,-0.0848 -0.093017,-0.0289 -0.2356443,-0.0289 h -0.088883 v -0.28732 h 0.088883 q 0.150895,0 0.2459796,-0.0248 0.095085,-0.0248 0.148828,-0.0744 0.053743,-0.0517 0.074414,-0.13023 0.020671,-0.0786 0.020671,-0.18603 v -0.4899 q 0,-0.17363 0.041341,-0.31212 0.041341,-0.14056 0.1343587,-0.23771 0.095085,-0.0992 0.2439125,-0.1509 0.1508951,-0.0537 0.3679359,-0.0537 h 0.1529621 v 0.28939 H 8.1228242 q -0.4795569,0 -0.4795569,0.46508 v 0.48163 q 0,0.50436 -0.4361487,0.56844 0.4402829,0.0434 0.4402829,0.56637 v 0.70693 q 0,0.47336 0.4754227,0.47336 h 0.1219563 z m 2.5259415,-2.18281 H 8.9930547 v -0.30386 h 1.7776673 z m 0,0.71933 H 8.9930547 v -0.30386 h 1.7776673 z m 2.428791,-0.35346 H 12.38716 v 0.84335 h -0.355534 v -0.84335 h -0.812352 v -0.3142 h 0.812352 v -0.83715 h 0.355534 v 0.83715 h 0.812353 z m 2.501137,1.81694 h -2.327504 v -0.29766 h 2.327504 z m 1.781802,-1.80454 h -1.236099 v -0.339 h 1.236099 z m 4.925794,-0.37827 h -1.777668 v -0.30386 h 1.777668 z m 0,0.71933 h -1.777668 v -0.30386 h 1.777668 z m 0.748273,-2.37711 h 0.152962 q 0.398942,0 0.593245,0.1881 0.194304,0.18604 0.194304,0.56637 v 0.47749 q 0,0.10129 0.02274,0.1819 0.02274,0.0786 0.07855,0.13436 0.05788,0.0538 0.152962,0.0827 0.09509,0.0289 0.237712,0.0289 h 0.08888 v 0.28732 h -0.08888 q -0.150895,0 -0.248047,0.0248 -0.09508,0.0248 -0.148828,0.0765 -0.05374,0.0496 -0.07441,0.12816 -0.02067,0.0786 -0.02067,0.18603 v 0.72347 q 0,0.17363 -0.04134,0.31213 -0.04134,0.14056 -0.134359,0.23771 -0.09302,0.0992 -0.243913,0.15089 -0.150895,0.0538 -0.367936,0.0538 h -0.152962 v -0.28939 h 0.124024 q 0.47749,0 0.47749,-0.46509 v -0.7152 q 0,-0.50436 0.436148,-0.56637 -0.440283,-0.0475 -0.440283,-0.56844 v -0.47336 q 0,-0.47335 -0.473355,-0.47335 h -0.124024 z"
         id="path38" />
    </g>
  </g>
</svg>
