<?xml version="1.0" encoding="UTF-8" standalone="no"?>
<!-- Created with Inkscape (http://www.inkscape.org/) -->

<svg
   width="17.952372mm"
   height="9.2489433mm"
   viewBox="0 0 17.952372 9.2489433"
   version="1.1"
   id="svg1"
   xmlns:inkscape="http://www.inkscape.org/namespaces/inkscape"
   xmlns:sodipodi="http://sodipodi.sourceforge.net/DTD/sodipodi-0.dtd"
   xmlns="http://www.w3.org/2000/svg"
   xmlns:svg="http://www.w3.org/2000/svg">
  <sodipodi:namedview
     id="namedview1"
     pagecolor="#ffffff"
     bordercolor="#000000"
     borderopacity="0.25"
     inkscape:showpageshadow="2"
     inkscape:pageopacity="0.0"
     inkscape:pagecheckerboard="0"
     inkscape:deskcolor="#d1d1d1"
     inkscape:document-units="mm" />
  <defs
     id="defs1" />
  <g
     inkscape:label="Layer 1"
     inkscape:groupmode="layer"
     id="layer1"
     style="display:inline"
     transform="translate(-10.10033,-35.494842)">
    <g
       id="text4"
       style="font-size:4.23333px;font-family:Sans;-inkscape-font-specification:'Sans, Normal';letter-spacing:0px;word-spacing:0px;display:inline;stroke-width:0.264583;stroke-linecap:round;stroke-linejoin:round;stroke-miterlimit:1"
       aria-label=" /\mm/\&#10;{='w'= }">
      <path
         style="font-family:Consolas;-inkscape-font-specification:'Consolas, Normal'"
         d="m 14.091807,35.494843 -1.418,3.365166 h -0.343131 l 1.418,-3.365166 z m 2.420523,3.365166 h -0.343132 l -1.418,-3.365166 h 0.343131 z m 2.046385,-0.444417 v -1.490347 q 0,-0.09715 -0.0083,-0.159163 -0.0062,-0.06201 -0.02274,-0.09715 -0.01447,-0.03721 -0.03927,-0.05168 -0.02274,-0.01447 -0.05788,-0.01447 -0.04134,0 -0.07648,0.02481 -0.03514,0.02481 -0.07648,0.08062 -0.03927,0.05581 -0.08888,0.148828 -0.04754,0.09095 -0.113688,0.225309 V 38.4156 h -0.328662 v -1.451073 q 0,-0.113688 -0.0083,-0.183968 -0.0062,-0.07028 -0.02274,-0.109554 -0.01447,-0.03927 -0.03927,-0.05374 -0.02481,-0.01447 -0.05995,-0.01447 -0.03721,0 -0.07028,0.02067 -0.03307,0.02067 -0.07441,0.07441 -0.03927,0.05374 -0.08888,0.146761 -0.04961,0.09302 -0.117822,0.237711 v 1.333251 h -0.330729 v -2.075324 h 0.274918 l 0.01654,0.394808 q 0.05374,-0.117822 0.103353,-0.200504 0.05168,-0.08268 0.105419,-0.132292 0.05374,-0.05168 0.113688,-0.07441 0.06201,-0.02481 0.136426,-0.02481 0.167432,0 0.254248,0.109554 0.08682,0.109554 0.08682,0.338997 0.04961,-0.107486 0.09715,-0.190169 0.04754,-0.08475 0.101286,-0.140559 0.05581,-0.05788 0.121956,-0.08682 0.06615,-0.03101 0.152962,-0.03101 0.390673,0 0.390673,0.601514 v 1.511017 z m 2.327504,0 v -1.490347 q 0,-0.09715 -0.0083,-0.159163 -0.0062,-0.06201 -0.02274,-0.09715 -0.01447,-0.03721 -0.03927,-0.05168 -0.02274,-0.01447 -0.05788,-0.01447 -0.04134,0 -0.07648,0.02481 -0.03514,0.02481 -0.07648,0.08062 -0.03927,0.05581 -0.08888,0.148828 -0.04754,0.09095 -0.113688,0.225309 V 38.4156 h -0.328662 v -1.451073 q 0,-0.113688 -0.0083,-0.183968 -0.0062,-0.07028 -0.02274,-0.109554 -0.01447,-0.03927 -0.03927,-0.05374 -0.0248,-0.01447 -0.05994,-0.01447 -0.03721,0 -0.07028,0.02067 -0.03307,0.02067 -0.07441,0.07441 -0.03927,0.05374 -0.08888,0.146761 -0.04961,0.09302 -0.117823,0.237711 v 1.333251 h -0.330728 v -2.075324 h 0.274918 l 0.01654,0.394808 q 0.05374,-0.117822 0.103353,-0.200504 0.05168,-0.08268 0.10542,-0.132292 0.05374,-0.05168 0.113688,-0.07441 0.06201,-0.02481 0.136426,-0.02481 0.167431,0 0.254248,0.109554 0.08682,0.109554 0.08682,0.338997 0.04961,-0.107486 0.09715,-0.190169 0.04754,-0.08475 0.101286,-0.140559 0.05581,-0.05788 0.121956,-0.08682 0.06615,-0.03101 0.152963,-0.03101 0.390673,0 0.390673,0.601514 v 1.511017 z m 2.515607,-2.920749 -1.418,3.365166 h -0.343131 l 1.418,-3.365166 z m 2.420522,3.365166 h -0.343131 l -1.418,-3.365166 h 0.343131 z"
         id="path25" />
      <path
         style="font-family:Consolas;-inkscape-font-specification:'Consolas, Normal'"
         d="m 11.619609,44.743785 h -0.152962 q -0.398942,0 -0.593245,-0.188102 -0.194303,-0.186035 -0.194303,-0.566374 v -0.711067 q 0,-0.101286 -0.02274,-0.179834 -0.02274,-0.08062 -0.08061,-0.134358 -0.05581,-0.05581 -0.150895,-0.08475 -0.09302,-0.02894 -0.235645,-0.02894 h -0.08888 v -0.287321 h 0.08888 q 0.150895,0 0.24598,-0.02481 0.09509,-0.0248 0.148828,-0.07441 0.05374,-0.05168 0.07441,-0.130224 0.02067,-0.07855 0.02067,-0.186035 v -0.489892 q 0,-0.173633 0.04134,-0.312126 0.04134,-0.14056 0.134358,-0.237711 0.09508,-0.09922 0.243913,-0.150895 0.150895,-0.05374 0.367936,-0.05374 h 0.152962 v 0.289388 H 11.49765 q -0.479557,0 -0.479557,0.465088 v 0.481624 q 0,0.504361 -0.436149,0.56844 0.440283,0.04341 0.440283,0.566373 v 0.706933 q 0,0.473356 0.475423,0.473356 h 0.121956 z m 2.525942,-2.182811 h -1.777668 v -0.303857 h 1.777668 z m 0,0.719335 h -1.777668 v -0.303857 h 1.777668 z m 1.676382,-2.304767 -0.05994,0.969449 H 15.40646 l -0.05788,-0.969449 z m 3.179131,0.845426 -0.30179,2.075324 h -0.436148 l -0.299723,-0.868164 -0.05994,-0.210839 -0.06821,0.223242 -0.287321,0.855761 h -0.423746 l -0.299723,-2.075324 h 0.351399 l 0.173633,1.409732 0.03721,0.314192 0.08888,-0.274918 0.301791,-0.932242 h 0.258382 l 0.324527,0.91984 0.09302,0.274918 0.03101,-0.291455 0.16123,-1.420067 z m 1.475878,-0.845426 -0.05994,0.969449 h -0.355534 l -0.05788,-0.969449 z m 2.978628,1.585432 h -1.777668 v -0.303857 h 1.777668 z m 0,0.719335 h -1.777668 v -0.303857 h 1.777668 z m 3.075778,-2.377114 h 0.152962 q 0.398942,0 0.593245,0.188102 0.194303,0.186035 0.194303,0.566374 v 0.477489 q 0,0.101286 0.02274,0.181901 0.02274,0.07855 0.07855,0.134359 0.05788,0.05374 0.152962,0.08268 0.09508,0.02894 0.237711,0.02894 h 0.08888 v 0.287321 h -0.08888 q -0.150895,0 -0.248046,0.0248 -0.09509,0.02481 -0.148828,0.07648 -0.05374,0.04961 -0.07441,0.128158 -0.02067,0.07855 -0.02067,0.186035 v 0.723469 q 0,0.173633 -0.04134,0.312126 -0.04134,0.140559 -0.134359,0.237711 -0.09302,0.09922 -0.243912,0.150895 -0.150895,0.05374 -0.367936,0.05374 h -0.152962 v -0.289388 h 0.124023 q 0.47749,0 0.47749,-0.465088 v -0.715201 q 0,-0.504361 0.436149,-0.566373 -0.440283,-0.04754 -0.440283,-0.56844 v -0.473356 q 0,-0.473356 -0.473356,-0.473356 h -0.124023 z"
         id="path26" />
    </g>
  </g>
</svg>
