<?xml version="1.0" encoding="UTF-8" standalone="no"?>
<!-- Created with Inkscape (http://www.inkscape.org/) -->

<svg
   width="17.952377mm"
   height="9.199935mm"
   viewBox="0 0 17.952377 9.199935"
   version="1.1"
   id="svg1"
   xmlns="http://www.w3.org/2000/svg"
   xmlns:svg="http://www.w3.org/2000/svg">
  <defs
     id="defs1" />
  <g
     id="layer1"
     style="display:inline"
     transform="translate(-9.3104689,-49.927622)">
    <g
       id="text6"
       style="font-size:4.23333px;font-family:Gadugi;-inkscape-font-specification:'Gadugi, Normal';letter-spacing:0px;word-spacing:0px;display:inline;stroke-width:0.264583;stroke-linecap:round;stroke-linejoin:round;stroke-miterlimit:1"
       aria-label=" /\mm/\&#10;{='o' =}">
      <path
         style="font-family:Consolas;-inkscape-font-specification:'Consolas, Normal'"
         d="m 13.301953,49.92762 -1.418,3.365167 h -0.343131 l 1.418,-3.365167 z m 2.420522,3.365167 h -0.343131 l -1.418,-3.365167 h 0.343131 z m 2.046386,-0.444417 v -1.490347 q 0,-0.09715 -0.0083,-0.159164 -0.0062,-0.06201 -0.02274,-0.09715 -0.01447,-0.03721 -0.03927,-0.05168 -0.02274,-0.01447 -0.05788,-0.01447 -0.04134,0 -0.07648,0.02481 -0.03514,0.0248 -0.07648,0.08062 -0.03927,0.05581 -0.08888,0.148828 -0.04754,0.09095 -0.113688,0.225309 v 1.333251 h -0.328662 v -1.451073 q 0,-0.113688 -0.0083,-0.183968 -0.0062,-0.07028 -0.02274,-0.109554 -0.01447,-0.03927 -0.03927,-0.05374 -0.02481,-0.01447 -0.05994,-0.01447 -0.03721,0 -0.07028,0.02067 -0.03307,0.02067 -0.07441,0.07441 -0.03927,0.05374 -0.08888,0.146761 -0.04961,0.09302 -0.117822,0.237712 v 1.333251 H 16.14411 v -2.075324 h 0.274918 l 0.01654,0.394807 q 0.05374,-0.117822 0.103352,-0.200504 0.05168,-0.08268 0.10542,-0.132292 0.05374,-0.05168 0.113688,-0.07441 0.06201,-0.0248 0.136426,-0.0248 0.167432,0 0.254248,0.109554 0.08682,0.109554 0.08682,0.338997 0.04961,-0.107487 0.09715,-0.190169 0.04754,-0.08475 0.101286,-0.14056 0.05581,-0.05788 0.121956,-0.08682 0.06615,-0.03101 0.152962,-0.03101 0.390673,0 0.390673,0.601513 v 1.511018 z m 2.327504,0 v -1.490347 q 0,-0.09715 -0.0083,-0.159164 -0.0062,-0.06201 -0.02274,-0.09715 -0.01447,-0.03721 -0.03927,-0.05168 -0.02274,-0.01447 -0.05788,-0.01447 -0.04134,0 -0.07648,0.02481 -0.03514,0.0248 -0.07648,0.08062 -0.03927,0.05581 -0.08888,0.148828 -0.04754,0.09095 -0.113688,0.225309 v 1.333251 h -0.328662 v -1.451073 q 0,-0.113688 -0.0083,-0.183968 -0.0062,-0.07028 -0.02274,-0.109554 -0.01447,-0.03927 -0.03927,-0.05374 -0.0248,-0.01447 -0.05994,-0.01447 -0.03721,0 -0.07028,0.02067 -0.03307,0.02067 -0.07441,0.07441 -0.03927,0.05374 -0.08888,0.146761 -0.04961,0.09302 -0.117823,0.237712 V 52.84837 H 18.47166 v -2.075324 h 0.274918 l 0.01654,0.394807 q 0.05374,-0.117822 0.103353,-0.200504 0.05168,-0.08268 0.10542,-0.132292 0.05374,-0.05168 0.113688,-0.07441 0.06201,-0.0248 0.136426,-0.0248 0.167431,0 0.254248,0.109554 0.08682,0.109554 0.08682,0.338997 0.04961,-0.107487 0.09715,-0.190169 0.04754,-0.08475 0.101286,-0.14056 0.05581,-0.05788 0.121956,-0.08682 0.06615,-0.03101 0.152963,-0.03101 0.390673,0 0.390673,0.601513 v 1.511018 z m 2.515607,-2.92075 -1.418,3.365167 h -0.343131 l 1.418,-3.365167 z m 2.420522,3.365167 h -0.343131 l -1.418,-3.365167 h 0.343131 z"
         id="path27" />
      <path
         style="font-family:Consolas;-inkscape-font-specification:'Consolas, Normal'"
         d="m 10.829755,59.127557 h -0.152962 q -0.398942,0 -0.593245,-0.188102 Q 9.8892445,58.75342 9.8892445,58.373082 v -0.711067 q 0,-0.101286 -0.022738,-0.179834 -0.022738,-0.08061 -0.080615,-0.134358 -0.05581,-0.05581 -0.150895,-0.08475 -0.093018,-0.02894 -0.2356443,-0.02894 H 9.310469 v -0.287321 h 0.088883 q 0.150895,0 0.2459796,-0.02481 0.095085,-0.02481 0.148828,-0.07441 0.053743,-0.05168 0.074414,-0.130224 0.02067,-0.07855 0.02067,-0.186035 V 56.04144 q 0,-0.173632 0.041341,-0.312125 0.041341,-0.14056 0.1343584,-0.237711 0.09508,-0.09922 0.243913,-0.150895 0.150895,-0.05374 0.367936,-0.05374 h 0.152962 v 0.289388 h -0.121956 q -0.479557,0 -0.479557,0.465087 v 0.481624 q 0,0.504362 -0.4361491,0.568441 0.4402831,0.04341 0.4402831,0.566373 v 0.706933 q 0,0.473356 0.475423,0.473356 h 0.121956 z m 2.525942,-2.18281 H 11.578029 V 56.64089 h 1.777668 z m 0,0.719335 h -1.777668 v -0.303857 h 1.777668 z m 1.676382,-2.304767 -0.05994,0.969449 h -0.355533 l -0.05788,-0.969449 z m 3.063376,1.866551 q 0,0.241846 -0.06821,0.444417 -0.06821,0.200505 -0.19637,0.345199 -0.128157,0.142626 -0.312125,0.223242 -0.183968,0.07855 -0.417545,0.07855 -0.223242,0 -0.401009,-0.06821 -0.1757,-0.07028 -0.299723,-0.204639 -0.121957,-0.134358 -0.188102,-0.332796 -0.06408,-0.198437 -0.06408,-0.456819 0,-0.241845 0.06821,-0.440283 0.06821,-0.200504 0.19637,-0.343131 0.128158,-0.144694 0.312125,-0.223242 0.183968,-0.08061 0.417546,-0.08061 0.223242,0 0.398941,0.07028 0.177767,0.06821 0.299723,0.202571 0.124024,0.132292 0.188103,0.330729 0.06615,0.198437 0.06615,0.454752 z m -0.367936,0.01654 q 0,-0.192236 -0.04341,-0.334863 -0.04134,-0.144694 -0.119889,-0.239779 -0.07855,-0.09715 -0.192236,-0.144694 -0.111621,-0.04961 -0.250114,-0.04961 -0.16123,0 -0.276985,0.06408 -0.113688,0.06201 -0.188102,0.167431 -0.07235,0.10542 -0.107487,0.24598 -0.03307,0.138493 -0.03307,0.291455 0,0.192236 0.04134,0.33693 0.04341,0.144694 0.121956,0.241845 0.07855,0.09508 0.190169,0.144694 0.111621,0.04754 0.252181,0.04754 0.16123,0 0.274919,-0.06201 0.115755,-0.06408 0.188102,-0.169499 0.07441,-0.10542 0.107486,-0.243912 0.03514,-0.14056 0.03514,-0.295589 z m 1.959569,-1.883088 -0.05994,0.969449 H 19.27161 l -0.05788,-0.969449 z m 5.306132,1.585432 h -1.777668 v -0.30386 h 1.777668 z m 0,0.719335 h -1.777668 v -0.303857 h 1.777668 z m 0.748274,-2.377114 h 0.152962 q 0.398941,0 0.593245,0.188102 0.194303,0.186035 0.194303,0.566373 v 0.47749 q 0,0.101286 0.02274,0.181901 0.02274,0.07855 0.07855,0.134359 0.05788,0.05374 0.152962,0.08268 0.09508,0.02894 0.237711,0.02894 h 0.08888 v 0.287321 h -0.08888 q -0.150895,0 -0.248047,0.0248 -0.09508,0.02481 -0.148828,0.07648 -0.05374,0.04961 -0.07441,0.128158 -0.02067,0.07855 -0.02067,0.186035 v 0.723469 q 0,0.173633 -0.04134,0.312125 -0.04134,0.14056 -0.134359,0.237712 -0.09302,0.09922 -0.243912,0.150895 -0.150895,0.05374 -0.367936,0.05374 H 25.741494 V 58.83817 h 0.124023 q 0.47749,0 0.47749,-0.465088 v -0.715201 q 0,-0.504362 0.436149,-0.566373 -0.440283,-0.04754 -0.440283,-0.568441 v -0.473355 q 0,-0.473356 -0.473356,-0.473356 h -0.124023 z"
         id="path28" />
    </g>
  </g>
</svg>
