<?xml version="1.0" encoding="UTF-8" standalone="no"?>
<!-- Created with Inkscape (http://www.inkscape.org/) -->

<svg
   width="17.952377mm"
   height="9.0599041mm"
   viewBox="0 0 17.952377 9.0599041"
   version="1.1"
   id="svg1"
   xmlns="http://www.w3.org/2000/svg"
   xmlns:svg="http://www.w3.org/2000/svg">
  <defs
     id="defs1" />
  <g
     id="layer1"
     style="display:inline"
     transform="translate(-5.4330074,-96.528958)">
    <g
       id="text12"
       style="font-size:4.23333px;font-family:Consolas;-inkscape-font-specification:'Consolas, Normal';letter-spacing:0px;word-spacing:0px;display:inline;stroke-width:0.264583;stroke-linecap:round;stroke-linejoin:round;stroke-miterlimit:1"
       aria-label=" /\mm/\&#10;{=`u` =}">
      <path
         d="M 9.4244914,96.528958 8.0064913,99.894124 H 7.6633601 l 1.4180001,-3.365166 z m 2.4205226,3.365166 h -0.343132 l -1.418,-3.365166 h 0.343131 z m 2.046385,-0.444417 V 97.95936 q 0,-0.09715 -0.0083,-0.159163 -0.0062,-0.06201 -0.02274,-0.09715 -0.01447,-0.03721 -0.03927,-0.05168 -0.02274,-0.01447 -0.05788,-0.01447 -0.04134,0 -0.07648,0.02481 -0.03514,0.02481 -0.07648,0.08061 -0.03927,0.05581 -0.08888,0.148828 -0.04754,0.09095 -0.113688,0.225309 v 1.333251 h -0.328662 v -1.451073 q 0,-0.113688 -0.0083,-0.183968 -0.0062,-0.07028 -0.02274,-0.109554 -0.01447,-0.03927 -0.03927,-0.05374 -0.0248,-0.01447 -0.05994,-0.01447 -0.03721,0 -0.07028,0.02067 -0.03307,0.02067 -0.07441,0.07441 -0.03927,0.05374 -0.08888,0.146761 -0.04961,0.09302 -0.117822,0.237711 v 1.333251 h -0.330729 v -2.075324 h 0.274918 l 0.01654,0.394808 q 0.05374,-0.117822 0.103353,-0.200505 0.05168,-0.08268 0.105419,-0.132291 0.05374,-0.05168 0.113688,-0.07441 0.06201,-0.02481 0.136426,-0.02481 0.167432,0 0.254248,0.109554 0.08682,0.109554 0.08682,0.338997 0.04961,-0.107487 0.09715,-0.190169 0.04754,-0.08475 0.101286,-0.14056 0.05581,-0.05788 0.121956,-0.08682 0.06615,-0.03101 0.152962,-0.03101 0.390674,0 0.390674,0.601513 v 1.511018 z m 2.327504,0 V 97.95936 q 0,-0.09715 -0.0083,-0.159163 -0.0062,-0.06201 -0.02274,-0.09715 -0.01447,-0.03721 -0.03927,-0.05168 -0.02274,-0.01447 -0.05788,-0.01447 -0.04134,0 -0.07648,0.02481 -0.03514,0.02481 -0.07648,0.08061 -0.03927,0.05581 -0.08888,0.148828 -0.04754,0.09095 -0.113688,0.225309 v 1.333251 H 15.40655 v -1.451073 q 0,-0.113688 -0.0083,-0.183968 -0.0062,-0.07028 -0.02274,-0.109554 -0.01447,-0.03927 -0.03927,-0.05374 -0.02481,-0.01447 -0.05995,-0.01447 -0.03721,0 -0.07028,0.02067 -0.03307,0.02067 -0.07441,0.07441 -0.03927,0.05374 -0.08888,0.146761 -0.04961,0.09302 -0.117823,0.237711 v 1.333251 h -0.330728 v -2.075324 h 0.274918 l 0.01654,0.394808 q 0.05374,-0.117822 0.103353,-0.200505 0.05168,-0.08268 0.10542,-0.132291 0.05374,-0.05168 0.113688,-0.07441 0.06201,-0.02481 0.136426,-0.02481 0.167431,0 0.254248,0.109554 0.08682,0.109554 0.08682,0.338997 0.04961,-0.107487 0.09715,-0.190169 0.04754,-0.08475 0.101285,-0.14056 0.05581,-0.05788 0.121957,-0.08682 0.06614,-0.03101 0.152962,-0.03101 0.390673,0 0.390673,0.601513 v 1.511018 z m 2.515607,-2.920749 -1.418,3.365166 h -0.343131 l 1.418,-3.365166 z m 2.420522,3.365166 h -0.343131 l -1.418,-3.365166 h 0.343131 z"
         id="path33" />
      <path
         d="M 6.9522929,105.58886 H 6.7993308 q -0.3989417,0 -0.593245,-0.1881 -0.1943032,-0.18604 -0.1943032,-0.56637 v -0.71107 q 0,-0.10129 -0.022738,-0.17983 -0.022738,-0.0806 -0.080615,-0.13436 -0.055811,-0.0558 -0.150895,-0.0847 -0.093018,-0.0289 -0.2356444,-0.0289 h -0.088883 v -0.28732 h 0.088883 q 0.1508951,0 0.2459797,-0.0248 0.095085,-0.0248 0.148828,-0.0744 0.053743,-0.0517 0.074414,-0.13022 0.020671,-0.0786 0.020671,-0.18604 v -0.48989 q 0,-0.17363 0.041341,-0.31213 0.041341,-0.14056 0.1343586,-0.23771 0.095085,-0.0992 0.2439126,-0.15089 0.150895,-0.0537 0.3679359,-0.0537 h 0.1529621 v 0.28939 H 6.8303366 q -0.4795569,0 -0.4795569,0.46509 v 0.48162 q 0,0.50436 -0.4361487,0.56844 0.4402828,0.0434 0.4402828,0.56638 v 0.70693 q 0,0.47335 0.4754228,0.47335 h 0.1219563 z m 2.525942,-2.18281 H 7.7005671 v -0.30386 h 1.7776678 z m 0,0.71934 H 7.7005671 v -0.30386 h 1.7776678 z m 1.6557111,-1.80454 h -0.359667 l -0.661458,-0.50023 h 0.520898 z m -1.3807927,0.3452 z m 4.3263477,2.07532 H 13.75704 l -0.0124,-0.33486 q -0.09302,0.10748 -0.177767,0.17983 -0.08268,0.0703 -0.165365,0.11369 -0.08268,0.0434 -0.167431,0.0599 -0.08268,0.0186 -0.1757,0.0186 -0.320393,0 -0.483691,-0.18811 -0.163297,-0.1881 -0.163297,-0.56844 V 102.666 h 0.359668 v 1.32705 q 0,0.47748 0.359667,0.47748 0.06615,0 0.128158,-0.0186 0.06408,-0.0207 0.132291,-0.0682 0.07028,-0.0496 0.148828,-0.13229 0.08061,-0.0827 0.179834,-0.20878 v -1.37665 h 0.359668 z m 1.709455,-2.42052 h -0.359668 l -0.661458,-0.50023 h 0.520898 z m -1.380793,0.3452 z m 6.707595,0.74 H 19.33809 v -0.30386 h 1.777668 z m 0,0.71934 H 19.33809 v -0.30386 h 1.777668 z m 0.748274,-2.37712 h 0.152962 q 0.398942,0 0.593245,0.1881 0.194303,0.18604 0.194303,0.56638 v 0.47749 q 0,0.10128 0.02274,0.1819 0.02274,0.0786 0.07855,0.13436 0.05788,0.0537 0.152962,0.0827 0.09508,0.0289 0.237711,0.0289 h 0.08888 v 0.28732 h -0.08888 q -0.150895,0 -0.248046,0.0248 -0.09509,0.0248 -0.148828,0.0765 -0.05374,0.0496 -0.07441,0.12816 -0.02067,0.0785 -0.02067,0.18604 v 0.72347 q 0,0.17363 -0.04134,0.31212 -0.04134,0.14056 -0.134359,0.23771 -0.09302,0.0992 -0.243912,0.1509 -0.150895,0.0537 -0.367936,0.0537 h -0.152962 v -0.28939 h 0.124023 q 0.47749,0 0.47749,-0.46508 v -0.7152 q 0,-0.50437 0.436149,-0.56638 -0.440283,-0.0475 -0.440283,-0.56844 v -0.47335 q 0,-0.47336 -0.473356,-0.47336 h -0.124023 z"
         id="path34" />
    </g>
  </g>
</svg>
