<?xml version="1.0" encoding="UTF-8" standalone="no"?>
<!-- Created with Inkscape (http://www.inkscape.org/) -->

<svg
   width="17.952377mm"
   height="9.0599127mm"
   viewBox="0 0 17.952377 9.0599127"
   version="1.1"
   id="svg1"
   xmlns="http://www.w3.org/2000/svg"
   xmlns:svg="http://www.w3.org/2000/svg">
  <defs
     id="defs1" />
  <g
     id="layer1"
     style="display:inline"
     transform="translate(-9.2386639,-139.89909)">
    <g
       id="text19"
       style="font-size:4.23333px;font-family:Consolas;-inkscape-font-specification:'Consolas, Normal';letter-spacing:0px;word-spacing:0px;display:inline;stroke-width:0.264583;stroke-linecap:round;stroke-linejoin:round;stroke-miterlimit:1"
       aria-label=" /\mm/\&#10;{=e_e =}">
      <path
         d="m 13.230148,139.89909 -1.418,3.36517 h -0.343131 l 1.418,-3.36517 z m 2.420522,3.36517 h -0.343131 l -1.418,-3.36517 h 0.343131 z m 2.046386,-0.44442 v -1.49035 q 0,-0.0971 -0.0083,-0.15916 -0.0062,-0.062 -0.02274,-0.0971 -0.01447,-0.0372 -0.03927,-0.0517 -0.02274,-0.0145 -0.05788,-0.0145 -0.04134,0 -0.07648,0.0248 -0.03514,0.0248 -0.07648,0.0806 -0.03927,0.0558 -0.08888,0.14883 -0.04754,0.0909 -0.113688,0.22531 v 1.33325 h -0.328662 v -1.45107 q 0,-0.11369 -0.0083,-0.18397 -0.0062,-0.0703 -0.02274,-0.10956 -0.01447,-0.0393 -0.03927,-0.0537 -0.02481,-0.0145 -0.05995,-0.0145 -0.03721,0 -0.07028,0.0207 -0.03307,0.0207 -0.07441,0.0744 -0.03927,0.0537 -0.08888,0.14676 -0.04961,0.093 -0.117822,0.23771 v 1.33325 H 16.07235 v -2.07532 h 0.274918 l 0.01654,0.3948 q 0.05374,-0.11782 0.103352,-0.2005 0.05168,-0.0827 0.10542,-0.13229 0.05374,-0.0517 0.113688,-0.0744 0.06201,-0.0248 0.136426,-0.0248 0.167432,0 0.254248,0.10955 0.08682,0.10956 0.08682,0.339 0.04961,-0.10749 0.09715,-0.19017 0.04754,-0.0847 0.101286,-0.14056 0.05581,-0.0579 0.121956,-0.0868 0.06615,-0.031 0.152962,-0.031 0.390673,0 0.390673,0.60151 v 1.51102 z m 2.327504,0 v -1.49035 q 0,-0.0971 -0.0083,-0.15916 -0.0062,-0.062 -0.02274,-0.0971 -0.01447,-0.0372 -0.03927,-0.0517 -0.02274,-0.0145 -0.05788,-0.0145 -0.04134,0 -0.07648,0.0248 -0.03514,0.0248 -0.07648,0.0806 -0.03927,0.0558 -0.08888,0.14883 -0.04754,0.0909 -0.113688,0.22531 v 1.33325 H 19.21218 v -1.45107 q 0,-0.11369 -0.0083,-0.18397 -0.0062,-0.0703 -0.02274,-0.10956 -0.01447,-0.0393 -0.03927,-0.0537 -0.0248,-0.0145 -0.05994,-0.0145 -0.03721,0 -0.07028,0.0207 -0.03307,0.0207 -0.07441,0.0744 -0.03927,0.0537 -0.08888,0.14676 -0.04961,0.093 -0.117823,0.23771 v 1.33325 h -0.330728 v -2.07532 h 0.274918 l 0.01654,0.3948 q 0.05374,-0.11782 0.103353,-0.2005 0.05168,-0.0827 0.10542,-0.13229 0.05374,-0.0517 0.113688,-0.0744 0.06201,-0.0248 0.136426,-0.0248 0.167431,0 0.254248,0.10955 0.08682,0.10956 0.08682,0.339 0.04961,-0.10749 0.09715,-0.19017 0.04754,-0.0847 0.101286,-0.14056 0.05581,-0.0579 0.121956,-0.0868 0.06615,-0.031 0.152963,-0.031 0.390673,0 0.390673,0.60151 v 1.51102 z m 2.515607,-2.92075 -1.418,3.36517 h -0.343131 l 1.418,-3.36517 z m 2.420522,3.36517 h -0.343131 l -1.418,-3.36517 h 0.343131 z"
         id="path39" />
      <path
         d="m 10.75795,148.95899 h -0.152962 q -0.398942,0 -0.593245,-0.1881 -0.1943035,-0.18603 -0.1943035,-0.56637 v -0.71107 q 0,-0.10128 -0.022738,-0.17983 -0.022738,-0.0806 -0.080615,-0.13436 -0.05581,-0.0558 -0.150895,-0.0847 -0.093018,-0.0289 -0.2356443,-0.0289 H 9.238664 v -0.28732 h 0.088883 q 0.150895,0 0.2459796,-0.0248 0.095085,-0.0248 0.148828,-0.0744 0.053743,-0.0517 0.074414,-0.13022 0.020671,-0.0786 0.020671,-0.18604 v -0.48989 q 0,-0.17363 0.041341,-0.31212 0.041341,-0.14056 0.1343586,-0.23772 0.095085,-0.0992 0.2439128,-0.15089 0.150895,-0.0537 0.367936,-0.0537 h 0.152962 v 0.28938 h -0.121956 q -0.479557,0 -0.479557,0.46509 v 0.48162 q 0,0.50437 -0.4361491,0.56844 0.4402831,0.0434 0.4402831,0.56638 v 0.70693 q 0,0.47336 0.475423,0.47336 h 0.121956 z m 2.525942,-2.18281 h -1.777668 v -0.30385 h 1.777668 z m 0,0.71934 h -1.777668 v -0.30386 h 1.777668 z m 2.35851,-0.53123 q 0,0.0765 -0.0021,0.12815 -0.0021,0.0517 -0.0062,0.0971 H 14.17686 q 0,0.31833 0.177767,0.4899 0.177766,0.1695 0.512629,0.1695 0.09095,0 0.181901,-0.006 0.09095,-0.008 0.1757,-0.0207 0.08475,-0.0124 0.16123,-0.0269 0.07855,-0.0165 0.144694,-0.0351 v 0.29559 q -0.146761,0.0413 -0.332796,0.0661 -0.183968,0.0269 -0.382405,0.0269 -0.26665,0 -0.458886,-0.0724 -0.192236,-0.0724 -0.31626,-0.20877 -0.121956,-0.13849 -0.181901,-0.33693 -0.05788,-0.20051 -0.05788,-0.45269 0,-0.2191 0.06201,-0.41341 0.06408,-0.19637 0.183968,-0.34313 0.121957,-0.14883 0.297656,-0.23564 0.1757,-0.0868 0.398942,-0.0868 0.217041,0 0.384472,0.0682 0.167432,0.0682 0.28112,0.19431 0.115755,0.12402 0.173633,0.30385 0.05994,0.17777 0.05994,0.39895 z m -0.374137,-0.0517 q 0.0062,-0.13849 -0.02687,-0.25218 -0.03307,-0.11576 -0.103352,-0.19844 -0.06821,-0.0827 -0.171566,-0.12816 -0.103353,-0.0475 -0.239778,-0.0475 -0.117823,0 -0.214974,0.0455 -0.09715,0.0455 -0.167432,0.12815 -0.07028,0.0827 -0.113688,0.19844 -0.04341,0.11576 -0.05374,0.25425 z m 2.945554,2.04638 h -2.327504 v -0.29765 h 2.327504 z m 2.083593,-1.9947 q 0,0.0765 -0.0021,0.12815 -0.0021,0.0517 -0.0062,0.0971 h -1.457274 q 0,0.31833 0.177767,0.4899 0.177767,0.1695 0.51263,0.1695 0.09095,0 0.181901,-0.006 0.09095,-0.008 0.175699,-0.0207 0.08475,-0.0124 0.161231,-0.0269 0.07855,-0.0165 0.144694,-0.0351 v 0.29559 q -0.146761,0.0413 -0.332796,0.0661 -0.183968,0.0269 -0.382406,0.0269 -0.26665,0 -0.458886,-0.0724 -0.192236,-0.0724 -0.31626,-0.20877 -0.121956,-0.13849 -0.1819,-0.33693 -0.05788,-0.20051 -0.05788,-0.45269 0,-0.2191 0.06201,-0.41341 0.06408,-0.19637 0.183968,-0.34313 0.121956,-0.14883 0.297656,-0.23564 0.175699,-0.0868 0.398941,-0.0868 0.217041,0 0.384473,0.0682 0.167431,0.0682 0.281119,0.19431 0.115755,0.12402 0.173633,0.30385 0.05995,0.17777 0.05995,0.39895 z m -0.374138,-0.0517 q 0.0062,-0.13849 -0.02687,-0.25218 -0.03307,-0.11576 -0.103353,-0.19844 -0.06821,-0.0827 -0.171566,-0.12816 -0.103352,-0.0475 -0.239778,-0.0475 -0.117822,0 -0.214974,0.0455 -0.09715,0.0455 -0.167431,0.12815 -0.07028,0.0827 -0.113688,0.19844 -0.04341,0.11576 -0.05374,0.25425 z m 4.998141,-0.13643 h -1.777668 v -0.30385 h 1.777668 z m 0,0.71934 h -1.777668 v -0.30386 h 1.777668 z m 0.748274,-2.37711 h 0.152962 q 0.398941,0 0.593245,0.1881 0.194303,0.18603 0.194303,0.56637 v 0.47749 q 0,0.10129 0.02274,0.1819 0.02274,0.0785 0.07855,0.13436 0.05788,0.0537 0.152962,0.0827 0.09508,0.0289 0.237711,0.0289 h 0.08888 v 0.28732 h -0.08888 q -0.150895,0 -0.248047,0.0248 -0.09508,0.0248 -0.148828,0.0765 -0.05374,0.0496 -0.07441,0.12815 -0.02067,0.0786 -0.02067,0.18604 v 0.72347 q 0,0.17363 -0.04134,0.31212 -0.04134,0.14056 -0.134359,0.23772 -0.09302,0.0992 -0.243912,0.15089 -0.150895,0.0537 -0.367936,0.0537 h -0.152962 v -0.28938 h 0.124023 q 0.47749,0 0.47749,-0.46509 v -0.7152 q 0,-0.50436 0.436149,-0.56638 -0.440283,-0.0475 -0.440283,-0.56844 v -0.47335 q 0,-0.47336 -0.473356,-0.47336 h -0.124023 z"
         id="path40" />
    </g>
  </g>
</svg>
