<?xml version="1.0" encoding="UTF-8" standalone="no"?>
<!-- Created with Inkscape (http://www.inkscape.org/) -->

<svg
   width="17.952377mm"
   height="9.0598965mm"
   viewBox="0 0 17.952377 9.0598965"
   version="1.1"
   id="svg1"
   xmlns="http://www.w3.org/2000/svg"
   xmlns:svg="http://www.w3.org/2000/svg">
  <defs
     id="defs1" />
  <g
     id="layer1"
     style="display:inline"
     transform="translate(-9.5258839,-151.24426)">
    <g
       id="text21"
       style="font-size:4.23333px;font-family:Consolas;-inkscape-font-specification:'Consolas, Normal';letter-spacing:0px;word-spacing:0px;display:inline;stroke-width:0.264583;stroke-linecap:round;stroke-linejoin:round;stroke-miterlimit:1"
       aria-label=" /\mm/\&#10;{=`A` =}">
      <path
         d="m 13.517368,151.24426 -1.418,3.36517 h -0.343131 l 1.418,-3.36517 z m 2.420522,3.36517 h -0.343131 l -1.418,-3.36517 h 0.343131 z m 2.046386,-0.44442 v -1.49035 q 0,-0.0971 -0.0083,-0.15916 -0.0062,-0.062 -0.02274,-0.0971 -0.01447,-0.0372 -0.03927,-0.0517 -0.02274,-0.0145 -0.05788,-0.0145 -0.04134,0 -0.07648,0.0248 -0.03514,0.0248 -0.07648,0.0806 -0.03927,0.0558 -0.08888,0.14883 -0.04754,0.0909 -0.113688,0.22531 v 1.33325 h -0.328662 v -1.45107 q 0,-0.11369 -0.0083,-0.18397 -0.0062,-0.0703 -0.02274,-0.10956 -0.01447,-0.0393 -0.03927,-0.0537 -0.02481,-0.0145 -0.05994,-0.0145 -0.03721,0 -0.07028,0.0207 -0.03307,0.0207 -0.07441,0.0744 -0.03927,0.0537 -0.08888,0.14676 -0.04961,0.093 -0.117822,0.23771 v 1.33325 H 16.35957 v -2.07533 h 0.274918 l 0.01654,0.39481 q 0.05374,-0.11782 0.103352,-0.2005 0.05168,-0.0827 0.10542,-0.13229 0.05374,-0.0517 0.113688,-0.0744 0.06201,-0.0248 0.136426,-0.0248 0.167432,0 0.254248,0.10955 0.08682,0.10956 0.08682,0.339 0.04961,-0.10749 0.09715,-0.19017 0.04754,-0.0847 0.101286,-0.14056 0.05581,-0.0579 0.121956,-0.0868 0.06615,-0.031 0.152962,-0.031 0.390673,0 0.390673,0.60151 v 1.51102 z m 2.327504,0 v -1.49035 q 0,-0.0971 -0.0083,-0.15916 -0.0062,-0.062 -0.02274,-0.0971 -0.01447,-0.0372 -0.03927,-0.0517 -0.02274,-0.0145 -0.05788,-0.0145 -0.04134,0 -0.07648,0.0248 -0.03514,0.0248 -0.07648,0.0806 -0.03927,0.0558 -0.08888,0.14883 -0.04754,0.0909 -0.113688,0.22531 v 1.33325 H 19.4994 v -1.45107 q 0,-0.11369 -0.0083,-0.18397 -0.0062,-0.0703 -0.02274,-0.10956 -0.01447,-0.0393 -0.03927,-0.0537 -0.0248,-0.0145 -0.05994,-0.0145 -0.03721,0 -0.07028,0.0207 -0.03307,0.0207 -0.07441,0.0744 -0.03927,0.0537 -0.08888,0.14676 -0.04961,0.093 -0.117823,0.23771 v 1.33325 h -0.330728 v -2.07533 h 0.274918 l 0.01654,0.39481 q 0.05374,-0.11782 0.103353,-0.2005 0.05168,-0.0827 0.10542,-0.13229 0.05374,-0.0517 0.113688,-0.0744 0.06201,-0.0248 0.136426,-0.0248 0.167431,0 0.254248,0.10955 0.08682,0.10956 0.08682,0.339 0.04961,-0.10749 0.09715,-0.19017 0.04754,-0.0847 0.101286,-0.14056 0.05581,-0.0579 0.121956,-0.0868 0.06615,-0.031 0.152963,-0.031 0.390673,0 0.390673,0.60151 v 1.51102 z m 2.515607,-2.92075 -1.418,3.36517 h -0.343131 l 1.418,-3.36517 z m 2.420522,3.36517 h -0.343131 l -1.418,-3.36517 h 0.343131 z"
         id="path41" />
      <path
         d="m 11.04517,160.30416 h -0.152962 q -0.398942,0 -0.593245,-0.1881 -0.194303,-0.18603 -0.194303,-0.56637 v -0.71107 q 0,-0.10128 -0.02274,-0.17983 -0.02274,-0.0806 -0.08061,-0.13436 -0.055811,-0.0558 -0.1508953,-0.0847 -0.093018,-0.0289 -0.2356443,-0.0289 H 9.525884 v -0.28732 h 0.088883 q 0.150895,0 0.2459796,-0.0248 0.095085,-0.0248 0.1488284,-0.0744 0.05374,-0.0517 0.07441,-0.13022 0.02067,-0.0786 0.02067,-0.18604 v -0.48989 q 0,-0.17363 0.04134,-0.31213 0.04134,-0.14056 0.134358,-0.23771 0.09508,-0.0992 0.243913,-0.15089 0.150895,-0.0538 0.367936,-0.0538 h 0.152962 v 0.28939 h -0.121956 q -0.479557,0 -0.479557,0.46509 v 0.48162 q 0,0.50437 -0.436149,0.56844 0.440283,0.0434 0.440283,0.56638 v 0.70693 q 0,0.47336 0.475423,0.47336 h 0.121956 z m 2.525942,-2.18281 h -1.777668 v -0.30385 h 1.777668 z m 0,0.71934 h -1.777668 v -0.30386 h 1.777668 z m 1.655711,-1.80454 h -0.359667 l -0.661458,-0.50023 h 0.520898 z m -1.380793,0.3452 z m 4.634339,2.07532 H 18.07936 l -0.188102,-0.58911 H 16.76678 l -0.190169,0.58911 h -0.382406 l 0.897103,-2.70164 h 0.504361 z m -0.694531,-0.91777 -0.456819,-1.44487 -0.456819,1.44487 z m 2.095995,-1.50275 h -0.359668 l -0.661458,-0.50023 h 0.520898 z m -1.380793,0.3452 z m 6.707595,0.74 h -1.777668 v -0.30385 h 1.777668 z m 0,0.71934 h -1.777668 v -0.30386 h 1.777668 z m 0.748274,-2.37712 h 0.152962 q 0.398941,0 0.593245,0.18811 0.194303,0.18603 0.194303,0.56637 v 0.47749 q 0,0.10129 0.02274,0.1819 0.02274,0.0786 0.07855,0.13436 0.05788,0.0537 0.152962,0.0827 0.09508,0.0289 0.237711,0.0289 h 0.08888 v 0.28732 h -0.08888 q -0.150895,0 -0.248047,0.0248 -0.09508,0.0248 -0.148828,0.0765 -0.05374,0.0496 -0.07441,0.12815 -0.02067,0.0786 -0.02067,0.18604 v 0.72347 q 0,0.17363 -0.04134,0.31212 -0.04134,0.14056 -0.134359,0.23772 -0.09302,0.0992 -0.243912,0.15089 -0.150895,0.0537 -0.367936,0.0537 h -0.152962 v -0.28938 h 0.124023 q 0.47749,0 0.47749,-0.46509 v -0.7152 q 0,-0.50436 0.436149,-0.56638 -0.440283,-0.0475 -0.440283,-0.56844 v -0.47335 q 0,-0.47336 -0.473356,-0.47336 h -0.124023 z"
         id="path42" />
    </g>
  </g>
</svg>
