<?xml version="1.0" encoding="UTF-8" standalone="no"?>
<!-- Created with Inkscape (http://www.inkscape.org/) -->

<svg
   width="17.952377mm"
   height="9.0599041mm"
   viewBox="0 0 17.952377 9.0599041"
   version="1.1"
   id="svg1"
   xmlns="http://www.w3.org/2000/svg"
   xmlns:svg="http://www.w3.org/2000/svg">
  <defs
     id="defs1" />
  <g
     id="layer1"
     style="display:inline"
     transform="translate(-4.7149588,-78.290533)">
    <g
       id="text10"
       style="font-size:4.23333px;font-family:Consolas;-inkscape-font-specification:'Consolas, Normal';letter-spacing:0px;word-spacing:0px;display:inline;stroke-width:0.264583;stroke-linecap:round;stroke-linejoin:round;stroke-miterlimit:1"
       aria-label=" /\mm/\&#10;{=`w' =}">
      <path
         d="M 8.7064428,78.290531 7.2884427,81.655698 H 6.9453115 l 1.4180001,-3.365167 z m 2.4205222,3.365167 H 10.783834 L 9.3658336,78.290531 h 0.3431313 z m 2.046385,-0.444417 v -1.490347 q 0,-0.09715 -0.0083,-0.159164 -0.0062,-0.06201 -0.02274,-0.09715 -0.01447,-0.03721 -0.03927,-0.05168 -0.02274,-0.01447 -0.05788,-0.01447 -0.04134,0 -0.07648,0.02481 -0.03514,0.0248 -0.07648,0.08062 -0.03927,0.05581 -0.08888,0.148828 -0.04754,0.09095 -0.113688,0.225309 v 1.333251 H 12.36097 v -1.451073 q 0,-0.113688 -0.0083,-0.183968 -0.0062,-0.07028 -0.02274,-0.109554 -0.01447,-0.03927 -0.03927,-0.05374 -0.0248,-0.01447 -0.05994,-0.01447 -0.03721,0 -0.07028,0.02067 -0.03307,0.02067 -0.07441,0.07441 -0.03927,0.05374 -0.08888,0.146761 -0.04961,0.09302 -0.117822,0.237711 v 1.333251 h -0.330729 v -2.075324 h 0.274919 l 0.01654,0.394808 q 0.05374,-0.117823 0.103353,-0.200505 0.05168,-0.08268 0.10542,-0.132291 0.05374,-0.05168 0.113688,-0.07441 0.06201,-0.02481 0.136426,-0.02481 0.167431,0 0.254247,0.109554 0.08682,0.109554 0.08682,0.338997 0.04961,-0.107487 0.09715,-0.190169 0.04754,-0.08475 0.101286,-0.14056 0.05581,-0.05788 0.121956,-0.08682 0.06615,-0.03101 0.152962,-0.03101 0.390674,0 0.390674,0.601513 v 1.511018 z m 2.327505,0 v -1.490347 q 0,-0.09715 -0.0083,-0.159164 -0.0062,-0.06201 -0.02274,-0.09715 -0.01447,-0.03721 -0.03927,-0.05168 -0.02274,-0.01447 -0.05788,-0.01447 -0.04134,0 -0.07648,0.02481 -0.03514,0.0248 -0.07648,0.08062 -0.03927,0.05581 -0.08888,0.148828 -0.04754,0.09095 -0.113688,0.225309 v 1.333251 h -0.328662 v -1.451073 q 0,-0.113688 -0.0083,-0.183968 -0.0062,-0.07028 -0.02274,-0.109554 -0.01447,-0.03927 -0.03927,-0.05374 -0.0248,-0.01447 -0.05994,-0.01447 -0.03721,0 -0.07028,0.02067 -0.03307,0.02067 -0.07441,0.07441 -0.03927,0.05374 -0.08888,0.146761 -0.04961,0.09302 -0.117822,0.237711 v 1.333251 h -0.330729 v -2.075324 h 0.274918 l 0.01654,0.394808 q 0.05374,-0.117823 0.103353,-0.200505 0.05168,-0.08268 0.105419,-0.132291 0.05374,-0.05168 0.113689,-0.07441 0.06201,-0.02481 0.136425,-0.02481 0.167432,0 0.254248,0.109554 0.08682,0.109554 0.08682,0.338997 0.04961,-0.107487 0.09715,-0.190169 0.04754,-0.08475 0.101286,-0.14056 0.05581,-0.05788 0.121956,-0.08682 0.06615,-0.03101 0.152962,-0.03101 0.390674,0 0.390674,0.601513 v 1.511018 z m 2.515607,-2.92075 -1.418,3.365167 h -0.343131 l 1.418,-3.365167 z m 2.420522,3.365167 h -0.343132 l -1.418,-3.365167 h 0.343131 z"
         id="path31" />
      <path
         d="M 6.2342443,87.350436 H 6.0812822 q -0.3989417,0 -0.5932449,-0.188102 Q 5.293734,86.976299 5.293734,86.595961 v -0.711068 q 0,-0.101285 -0.022738,-0.179833 Q 5.248258,85.62444 5.190381,85.570701 5.13457,85.514891 5.0394859,85.485951 4.9464679,85.457011 4.8038416,85.457011 H 4.7149586 V 85.16969 h 0.088883 q 0.150895,0 0.2459796,-0.0248 0.095084,-0.02481 0.148828,-0.07441 0.053743,-0.05168 0.074414,-0.130225 0.02067,-0.07855 0.02067,-0.186035 v -0.489892 q 0,-0.173633 0.041341,-0.312126 0.041341,-0.140559 0.1343587,-0.237711 0.095084,-0.09922 0.2439125,-0.150895 0.1508951,-0.05374 0.3679359,-0.05374 h 0.1529621 v 0.289387 H 6.112288 q -0.4795569,0 -0.4795569,0.465088 v 0.481624 q 0,0.504361 -0.4361487,0.56844 0.4402829,0.04341 0.4402829,0.566373 v 0.706933 q 0,0.473356 0.4754227,0.473356 h 0.1219563 z m 2.525942,-2.182811 H 6.9825185 v -0.303857 h 1.7776678 z m 0,0.719335 H 6.9825185 V 85.583103 H 8.7601863 Z M 10.415898,84.082421 H 10.05623 L 9.3947724,83.582194 h 0.520898 z m -1.3807932,0.345198 z m 4.5805952,0 -0.30179,2.075324 h -0.436149 l -0.299723,-0.868163 -0.05994,-0.21084 -0.06821,0.223242 -0.287321,0.855761 H 11.738813 L 11.43909,84.427619 h 0.3514 l 0.173633,1.409732 0.03721,0.314193 0.08888,-0.274919 0.30179,-0.932242 h 0.258382 l 0.324528,0.91984 0.09302,0.274918 0.03101,-0.291455 0.16123,-1.420067 z m 1.475878,-0.845425 -0.05995,0.969449 H 14.6761 l -0.05788,-0.969449 z m 5.306131,1.585431 h -1.777667 v -0.303857 h 1.777667 z m 0,0.719335 h -1.777667 v -0.303857 h 1.777667 z m 0.748274,-2.377113 h 0.152962 q 0.398942,0 0.593245,0.188102 0.194303,0.186035 0.194303,0.566373 v 0.47749 q 0,0.101285 0.02274,0.181901 0.02274,0.07855 0.07855,0.134358 0.05788,0.05374 0.152962,0.08268 0.09508,0.02894 0.237712,0.02894 h 0.08888 v 0.287321 h -0.08888 q -0.150895,0 -0.248047,0.02481 -0.09509,0.0248 -0.148828,0.07648 -0.05374,0.04961 -0.07441,0.128157 -0.02067,0.07855 -0.02067,0.186035 v 0.72347 q 0,0.173632 -0.04134,0.312125 -0.04134,0.14056 -0.134358,0.237711 -0.09302,0.09922 -0.243913,0.150895 -0.150895,0.05374 -0.367936,0.05374 h -0.152962 v -0.289388 h 0.124024 q 0.477489,0 0.477489,-0.465087 v -0.715202 q 0,-0.504361 0.436149,-0.566373 -0.440283,-0.04754 -0.440283,-0.56844 V 84.27259 q 0,-0.473356 -0.473355,-0.473356 h -0.124024 z"
         id="path32" />
    </g>
  </g>
</svg>
